HIERARCHY
ROOT hips_JNT
{
	OFFSET 0.000000 0.000000 0.000000
	CHANNELS 6 Xposition Yposition Zposition Zrotation Xrotation Yrotation
	JOINT spine_JNT
	{
		OFFSET -0.000424 -2.543419 9.319810
		CHANNELS 3 Zrotation Xrotation Yrotation
		JOINT spine1_JNT
		{
			OFFSET 0.000000 0.000046 10.873099
			CHANNELS 3 Zrotation Xrotation Yrotation
			JOINT spine2_JNT
			{
				OFFSET 0.000000 5.951161 12.426399
				CHANNELS 3 Zrotation Xrotation Yrotation
				JOINT neck_JNT
				{
					OFFSET 0.000000 1.460481 13.979698
					CHANNELS 3 Zrotation Xrotation Yrotation
					JOINT head_JNT
					{
						OFFSET 0.000000 -2.091499 5.870201
						CHANNELS 3 Zrotation Xrotation Yrotation
						End Site
						{
							OFFSET 0.000000 0.000000 0.099998
						}
					}
				}
				JOINT l_shoulder_JNT
				{
					OFFSET 4.399140 1.485011 12.861000
					CHANNELS 3 Zrotation Xrotation Yrotation
					JOINT l_arm_JNT
					{
						OFFSET 8.757349 0.049052 -2.311981
						CHANNELS 3 Zrotation Xrotation Yrotation
						JOINT l_forearm_JNT
						{
							OFFSET 26.900103 -0.000013 -0.000046
							CHANNELS 3 Zrotation Xrotation Yrotation
							JOINT l_hand_JNT
							{
								OFFSET 23.014801 0.000004 -0.000046
								CHANNELS 3 Zrotation Xrotation Yrotation
								JOINT l_handThumb1_JNT
								{
									OFFSET 3.629997 -2.130000 -0.779999
									CHANNELS 3 Zrotation Xrotation Yrotation
									JOINT l_handThumb2_JNT
									{
										OFFSET 3.551140 -2.240060 -2.118370
										CHANNELS 3 Zrotation Xrotation Yrotation
										JOINT l_handThumb3_JNT
										{
											OFFSET 2.159111 -0.963467 -1.116310
											CHANNELS 3 Zrotation Xrotation Yrotation
											End Site
											{
												OFFSET 0.000000 0.000000 0.099998
											}
										}
									}
								}
								JOINT l_handIndex1_JNT
								{
									OFFSET 10.514900 -2.197570 -0.041019
									CHANNELS 3 Zrotation Xrotation Yrotation
									JOINT l_handIndex2_JNT
									{
										OFFSET 2.751831 0.139054 -0.102867
										CHANNELS 3 Zrotation Xrotation Yrotation
										JOINT l_handIndex3_JNT
										{
											OFFSET 2.353012 0.090487 -0.073399
											CHANNELS 3 Zrotation Xrotation Yrotation
											End Site
											{
												OFFSET 0.000000 0.000000 0.099998
											}
										}
									}
								}
								JOINT l_handMiddle1_JNT
								{
									OFFSET 10.067101 -0.059573 0.139202
									CHANNELS 3 Zrotation Xrotation Yrotation
									JOINT l_handMiddle2_JNT
									{
										OFFSET 3.909027 0.119066 -0.288403
										CHANNELS 3 Zrotation Xrotation Yrotation
										JOINT l_handMiddle3_JNT
										{
											OFFSET 2.328400 0.059440 -0.019108
											CHANNELS 3 Zrotation Xrotation Yrotation
											End Site
											{
												OFFSET 0.000000 0.000000 0.099998
											}
										}
									}
								}
								JOINT l_handRing1_JNT
								{
									OFFSET 9.468109 1.809830 0.132240
									CHANNELS 3 Zrotation Xrotation Yrotation
									JOINT l_handRing2_JNT
									{
										OFFSET 3.281532 0.033937 -0.224052
										CHANNELS 3 Zrotation Xrotation Yrotation
										JOINT l_handRing3_JNT
										{
											OFFSET 2.245003 0.008389 -0.070213
											CHANNELS 3 Zrotation Xrotation Yrotation
											End Site
											{
												OFFSET 0.000000 0.000000 0.099998
											}
										}
									}
								}
								JOINT l_handPinky1_JNT
								{
									OFFSET 8.490768 3.584150 -0.077770
									CHANNELS 3 Zrotation Xrotation Yrotation
									JOINT l_handPinky2_JNT
									{
										OFFSET 2.532173 0.017040 -0.073074
										CHANNELS 3 Zrotation Xrotation Yrotation
										JOINT l_handPinky3_JNT
										{
											OFFSET 1.951210 -0.017009 0.025116
											CHANNELS 3 Zrotation Xrotation Yrotation
											End Site
											{
												OFFSET 0.000000 0.000000 0.099998
											}
										}
									}
								}
							}
						}
					}
				}
				JOINT r_shoulder_JNT
				{
					OFFSET -4.397820 1.485011 12.860600
					CHANNELS 3 Zrotation Xrotation Yrotation
					JOINT r_arm_JNT
					{
						OFFSET -8.757320 0.049050 -2.312000
						CHANNELS 3 Zrotation Xrotation Yrotation
						JOINT r_forearm_JNT
						{
							OFFSET -26.900000 -0.000010 0.000000
							CHANNELS 3 Zrotation Xrotation Yrotation
							JOINT r_hand_JNT
							{
								OFFSET -23.014900 0.000000 0.000000
								CHANNELS 3 Zrotation Xrotation Yrotation
								JOINT r_handThumb1_JNT
								{
									OFFSET -3.629997 -2.130000 -0.779999
									CHANNELS 3 Zrotation Xrotation Yrotation
									JOINT r_handThumb2_JNT
									{
										OFFSET -3.551201 -2.240060 -2.118000
										CHANNELS 3 Zrotation Xrotation Yrotation
										JOINT r_handThumb3_JNT
										{
											OFFSET -2.159103 -0.963467 -1.116001
											CHANNELS 3 Zrotation Xrotation Yrotation
											End Site
											{
												OFFSET 0.000000 0.000000 0.099998
											}
										}
									}
								}
								JOINT r_handIndex1_JNT
								{
									OFFSET -10.514900 -2.197560 -0.040997
									CHANNELS 3 Zrotation Xrotation Yrotation
									JOINT r_handIndex2_JNT
									{
										OFFSET -2.751801 0.139050 -0.102997
										CHANNELS 3 Zrotation Xrotation Yrotation
										JOINT r_handIndex3_JNT
										{
											OFFSET -2.352997 0.090490 -0.073006
											CHANNELS 3 Zrotation Xrotation Yrotation
											End Site
											{
												OFFSET 0.000000 0.000000 0.099998
											}
										}
									}
								}
								JOINT r_handMiddle1_JNT
								{
									OFFSET -10.067101 -0.059570 0.139999
									CHANNELS 3 Zrotation Xrotation Yrotation
									JOINT r_handMiddle2_JNT
									{
										OFFSET -3.909103 0.119070 -0.288998
										CHANNELS 3 Zrotation Xrotation Yrotation
										JOINT r_handMiddle3_JNT
										{
											OFFSET -2.328400 0.059440 -0.019001
											CHANNELS 3 Zrotation Xrotation Yrotation
											End Site
											{
												OFFSET 0.000000 0.000000 0.099998
											}
										}
									}
								}
								JOINT r_handRing1_JNT
								{
									OFFSET -9.468102 1.809830 0.133003
									CHANNELS 3 Zrotation Xrotation Yrotation
									JOINT r_handRing2_JNT
									{
										OFFSET -3.281601 0.033939 -0.224995
										CHANNELS 3 Zrotation Xrotation Yrotation
										JOINT r_handRing3_JNT
										{
											OFFSET -2.245003 0.008390 -0.070000
											CHANNELS 3 Zrotation Xrotation Yrotation
											End Site
											{
												OFFSET 0.000000 0.000000 0.099998
											}
										}
									}
								}
								JOINT r_handPinky1_JNT
								{
									OFFSET -8.490799 3.584149 -0.076996
									CHANNELS 3 Zrotation Xrotation Yrotation
									JOINT r_handPinky2_JNT
									{
										OFFSET -2.532204 0.017040 -0.074005
										CHANNELS 3 Zrotation Xrotation Yrotation
										JOINT r_handPinky3_JNT
										{
											OFFSET -1.951202 -0.017010 0.026001
											CHANNELS 3 Zrotation Xrotation Yrotation
											End Site
											{
												OFFSET 0.000000 0.000000 0.099998
											}
										}
									}
								}
							}
						}
					}
				}
			}
		}
	}
	JOINT l_upleg_JNT
	{
		OFFSET 10.061400 0.706233 -5.185750
		CHANNELS 3 Zrotation Xrotation Yrotation
		JOINT l_leg_JNT
		{
			OFFSET -0.348572 0.819165 -45.582401
			CHANNELS 3 Zrotation Xrotation Yrotation
			JOINT l_foot_JNT
			{
				OFFSET 0.349145 1.708487 -42.332497
				CHANNELS 3 Zrotation Xrotation Yrotation
				JOINT l_toebase_JNT
				{
					OFFSET 0.070271 -12.888700 -8.126663
					CHANNELS 3 Zrotation Xrotation Yrotation
					End Site
					{
						OFFSET 0.000000 0.000000 0.099998
					}
				}
			}
		}
	}
	JOINT r_upleg_JNT
	{
		OFFSET -10.061000 0.706233 -5.185770
		CHANNELS 3 Zrotation Xrotation Yrotation
		JOINT r_leg_JNT
		{
			OFFSET 0.348580 0.819162 -45.582405
			CHANNELS 3 Zrotation Xrotation Yrotation
			JOINT r_foot_JNT
			{
				OFFSET -0.349180 1.708487 -42.332504
				CHANNELS 3 Zrotation Xrotation Yrotation
				JOINT r_toebase_JNT
				{
					OFFSET -0.070200 -12.888700 -8.126663
					CHANNELS 3 Zrotation Xrotation Yrotation
					End Site
					{
						OFFSET 0.000000 0.000000 0.099998
					}
				}
			}
		}
	}
}
MOTION
Frames: 4
Frame Time: 0.041667
0.126679 0.094410 100.074051 8.658644 7.172021 1.401304 0.000091 0.001798 -2.848552 -0.000001 0.000003 0.000000 -3.997704 0.019136 -0.753971 -4.583270 -4.781942 -5.968560 -0.232299 7.655863 2.037356 -0.000000 0.000002 -0.000002 -12.148581 -4.825084 62.325476 -114.725007 -14.656095 9.416724 -0.000000 0.000004 0.000004 -22.207711 20.704829 4.106615 0.000002 -0.000001 -0.000004 1.464431 0.190298 14.808205 -1.408272 6.793641 23.397001 -2.314813 8.574649 30.171722 -1.037482 5.866442 20.029670 -1.275405 5.245102 27.322077 -2.088192 6.574006 35.190128 -0.940923 4.541812 23.401589 0.823063 -2.960268 31.129431 1.341657 -3.681538 40.045491 0.609951 -2.570349 26.676127 1.975327 -6.414967 34.204372 3.211924 -7.922475 44.089359 1.462669 -5.586676 29.285775 -0.000000 0.000001 0.000001 47.349586 -24.122847 -57.749823 79.680509 -11.488218 -13.748944 -0.000001 -0.000001 0.000002 22.207713 20.704829 -4.106615 -0.000000 0.000001 -0.000000 1.353344 -0.162116 -13.663305 1.200034 6.294672 -21.572673 1.975265 7.966883 -27.807821 0.883201 5.429644 -18.471089 1.088461 4.867167 -25.198900 1.783195 6.125109 -32.447749 0.801107 4.208639 -21.585204 -0.704315 -2.751021 -28.718497 -1.149979 -3.438691 -36.941444 -0.521504 -2.384150 -24.610959 -1.688204 -5.972398 -31.540014 -2.751762 -7.422030 -40.642180 -1.247415 -5.189437 -27.008344 -4.037860 0.158423 -19.688975 0.586274 -1.281541 0.462037 -0.100789 14.539635 -2.101388 -4.025120 -17.429676 -0.427882 -5.011682 -10.383761 6.689628 0.772364 25.098823 -0.828481 -0.257360 -1.866220 -1.475012 1.638913 -20.223591 0.292159 
0.126679 0.094410 100.074051 8.658737 7.172020 1.401293 0.000092 0.001797 -2.848552 -0.000001 0.000002 0.000000 -3.997703 0.019138 -0.753972 -4.583270 -4.781943 -5.968561 -0.232299 7.655863 2.037355 -0.000000 0.000002 -0.000002 -12.148581 -4.825085 62.325476 -114.725007 -14.656092 9.416722 -0.000001 0.000005 0.000003 -22.207710 20.704827 4.106612 -0.000001 0.000000 -0.000002 1.464435 0.190297 14.808209 -1.407757 6.793865 23.396938 -2.314814 8.574648 30.171729 -1.037482 5.866443 20.029666 -1.275404 5.245101 27.322080 -2.087884 6.574217 35.190091 -0.940924 4.541813 23.401591 0.823062 -2.960268 31.129434 1.342102 -3.681168 40.045519 0.609952 -2.570346 26.676127 1.975326 -6.414963 34.204372 3.211923 -7.922476 44.089359 1.462196 -5.586942 29.285727 0.000000 0.000002 0.000001 47.349583 -24.122847 -57.749823 79.680509 -11.488219 -13.748945 -0.000000 -0.000002 -0.000003 22.207713 20.704825 -4.106613 0.000003 0.000003 0.000002 1.353343 -0.162119 -13.663304 1.200035 6.294669 -21.572673 1.975264 7.966883 -27.807819 0.883204 5.429637 -18.471091 1.088461 4.867165 -25.198899 1.783942 6.124637 -32.447828 0.801107 4.208642 -21.585209 -0.704314 -2.751021 -28.718497 -1.149979 -3.438691 -36.941447 -0.521504 -2.384150 -24.610966 -1.687801 -5.972643 -31.539973 -2.751762 -7.422030 -40.642183 -1.247414 -5.189437 -27.008337 -4.037858 0.158425 -19.688971 0.586270 -1.281539 0.462037 -0.100784 14.539629 -2.101390 -4.025118 -17.429683 -0.427883 -5.011810 -10.383774 6.689603 0.772354 25.098823 -0.828480 -0.257362 -1.866220 -1.475012 1.638914 -20.223589 0.292161 
0.046091 0.082108 100.039047 8.774082 7.216336 1.294179 0.000098 0.002107 -2.672922 0.000001 0.000003 0.000000 -4.103449 0.018371 -0.762345 -4.660675 -4.802236 -6.068104 -0.269714 7.688164 2.015254 0.000000 -0.000001 -0.000005 -13.870127 -3.822529 62.183326 -115.590010 -11.756709 7.420679 -0.000002 -0.000008 -0.000003 -22.207713 20.704829 4.106615 -0.000000 -0.000003 -0.000000 1.464963 0.190437 14.813514 -1.408160 6.796439 23.405363 -2.317890 8.576622 30.182937 -1.036781 5.868982 20.036727 -1.276570 5.246710 27.332001 -2.088378 6.576952 35.202682 -0.941451 4.543413 23.410082 0.824132 -2.960916 31.140660 1.342396 -3.682796 40.059872 0.608473 -2.572166 26.685638 1.977526 -6.416432 34.216861 3.214861 -7.924042 44.105554 1.463660 -5.588530 29.296365 -0.000000 -0.000000 0.000004 49.983358 -22.718111 -56.732149 80.830610 -9.352831 -10.974422 0.000000 0.000009 0.000010 22.207713 20.704827 -4.106614 0.000004 -0.000004 0.000002 1.352772 -0.161977 -13.660207 1.200817 6.292794 -21.567915 1.975715 7.964526 -27.801605 0.882423 5.428575 -18.466849 1.088845 4.865732 -25.193281 1.783592 6.123116 -32.440479 0.802230 4.207142 -21.580420 -0.706661 -2.748995 -28.712128 -1.148526 -3.438734 -36.932998 -0.519692 -2.384373 -24.605294 -1.688005 -5.970849 -31.532876 -2.750949 -7.420304 -40.632939 -1.245800 -5.188884 -27.002147 -3.884103 -0.003666 -19.624371 0.549812 -1.281626 0.462228 -0.094439 14.617901 -2.034671 -4.019467 -17.447595 -0.431273 -4.816092 -10.288556 6.771143 0.783715 25.002358 -0.832590 -0.272729 -2.255281 -1.612042 1.580088 -19.903796 0.277157 
-0.053976 0.063313 100.027046 8.898702 7.295570 1.264011 0.000088 0.001890 -2.609401 -0.000001 0.000002 0.000000 -4.189928 0.018784 -0.773973 -4.739296 -4.806312 -6.170545 -0.267381 7.674845 2.001285 0.000001 0.000001 -0.000003 -15.272892 -3.029100 62.096316 -116.250994 -9.485645 5.906746 -0.000002 -0.000001 0.000001 -22.207711 20.704827 4.106611 -0.000002 0.000001 -0.000001 1.464986 0.190442 14.820812 -1.410279 6.799248 23.417056 -2.319125 8.580995 30.197789 -1.037325 5.871912 20.046576 -1.277264 5.249354 27.345456 -2.091088 6.579253 35.220157 -0.943195 4.545155 23.421644 0.827231 -2.960838 31.156075 1.344630 -3.683483 40.079632 0.608441 -2.573638 26.698716 1.979023 -6.419471 34.233721 3.217602 -7.927404 44.127417 1.463485 -5.591913 29.310609 0.000000 0.000001 0.000002 52.115392 -21.543492 -55.903917 81.576897 -7.623348 -8.830892 0.055953 0.000010 -0.000001 22.207716 20.704827 -4.106617 0.000001 -0.000002 0.000003 1.353901 -0.162253 -13.662305 1.199672 6.294272 -21.570948 1.973985 7.966821 -27.805482 0.883784 5.428989 -18.469752 1.087484 4.867189 -25.196834 1.783432 6.124357 -32.445202 0.803596 4.207300 -21.583695 -0.705090 -2.750335 -28.716345 -1.149666 -3.438565 -36.938548 -0.522725 -2.383385 -24.609021 -1.687720 -5.972110 -31.537490 -2.751689 -7.421258 -40.639035 -1.246487 -5.189430 -27.006170 -3.787292 -0.185063 -19.659106 0.539574 -1.281516 0.462874 -0.085861 14.738904 -1.953948 -4.020806 -17.415857 -0.426906 -4.572086 -10.086748 6.752093 0.795310 24.653993 -0.833297 -0.235759 -2.564861 -1.733240 1.518483 -19.552390 0.261642 
